{
	"asset":{
		"generator":"Khronos glTF Blender I/O v4.2.57",
		"version":"2.0"
	},
	"extensionsUsed":[
		"KHR_materials_specular"
	],
	"scene":0,
	"scenes":[
		{
			"name":"Scene",
			"nodes":[
				0
			]
		}
	],
	"nodes":[
		{
			"mesh":0,
			"name":"np",
			"rotation":[
				0.7071068286895752,
				0,
				0,
				0.7071068286895752
			],
			"translation":[
				267.039794921875,
				0,
				364.4031982421875
			]
		}
	],
	"materials":[
		{
			"doubleSided":true,
			"extensions":{
				"KHR_materials_specular":{
					"specularFactor":0.11803620308637619
				}
			},
			"name":"Part1Mtl",
			"pbrMetallicRoughness":{
				"baseColorFactor":[
					0.9406009912490845,
					0.9406009912490845,
					0.9406009912490845,
					1
				],
				"metallicFactor":0
			}
		},
		{
			"doubleSided":true,
			"extensions":{
				"KHR_materials_specular":{
					"specularFactor":0.041830066591501236
				}
			},
			"name":"Part2Mtl",
			"pbrMetallicRoughness":{
				"baseColorFactor":[
					1,
					0,
					0,
					1
				],
				"metallicFactor":0
			}
		},
		{
			"doubleSided":true,
			"extensions":{
				"KHR_materials_specular":{
					"specularFactor":0.04168613627552986
				}
			},
			"name":"Part61Mtl",
			"pbrMetallicRoughness":{
				"baseColorFactor":[
					0.7082980275154114,
					0.23882800340652466,
					0.049433499574661255,
					1
				],
				"metallicFactor":0
			}
		},
		{
			"doubleSided":true,
			"extensions":{
				"KHR_materials_specular":{
					"specularFactor":0.047596465796232224
				}
			},
			"name":"Meshpart1Mtl",
			"pbrMetallicRoughness":{
				"baseColorFactor":[
					0.35374099016189575,
					0.36360400915145874,
					0.4205079972743988,
					1
				],
				"metallicFactor":0
			}
		}
	],
	"meshes":[
		{
			"name":"np",
			"primitives":[
				{
					"attributes":{
						"POSITION":0,
						"NORMAL":1,
						"TEXCOORD_0":2
					},
					"indices":3,
					"material":0
				},
				{
					"attributes":{
						"POSITION":4,
						"NORMAL":5,
						"TEXCOORD_0":6
					},
					"indices":7,
					"material":1
				},
				{
					"attributes":{
						"POSITION":8,
						"NORMAL":9,
						"TEXCOORD_0":10
					},
					"indices":11,
					"material":2
				},
				{
					"attributes":{
						"POSITION":12,
						"NORMAL":13,
						"TEXCOORD_0":14
					},
					"indices":15,
					"material":3
				}
			]
		}
	],
	"accessors":[
		{
			"bufferView":0,
			"componentType":5126,
			"count":4547,
			"max":[
				78.57330322265625,
				-48.139198303222656,
				-18.23040008544922
			],
			"min":[
				-591.6530151367188,
				-633.9810180664062,
				-173.3800048828125
			],
			"type":"VEC3"
		},
		{
			"bufferView":1,
			"componentType":5126,
			"count":4547,
			"type":"VEC3"
		},
		{
			"bufferView":2,
			"componentType":5126,
			"count":4547,
			"type":"VEC2"
		},
		{
			"bufferView":3,
			"componentType":5123,
			"count":9204,
			"type":"SCALAR"
		},
		{
			"bufferView":4,
			"componentType":5126,
			"count":4176,
			"max":[
				-218.5919952392578,
				-287.1400146484375,
				-20.971500396728516
			],
			"min":[
				-232.8730010986328,
				-301.4219970703125,
				-176.12100219726562
			],
			"type":"VEC3"
		},
		{
			"bufferView":5,
			"componentType":5126,
			"count":4176,
			"type":"VEC3"
		},
		{
			"bufferView":6,
			"componentType":5126,
			"count":4176,
			"type":"VEC2"
		},
		{
			"bufferView":7,
			"componentType":5123,
			"count":8640,
			"type":"SCALAR"
		},
		{
			"bufferView":8,
			"componentType":5126,
			"count":676,
			"max":[
				-211.6649932861328,
				-279.5780029296875,
				-170.98399353027344
			],
			"min":[
				-240.22900390625,
				-309.0249938964844,
				-190.9199981689453
			],
			"type":"VEC3"
		},
		{
			"bufferView":9,
			"componentType":5126,
			"count":676,
			"type":"VEC3"
		},
		{
			"bufferView":10,
			"componentType":5126,
			"count":676,
			"type":"VEC2"
		},
		{
			"bufferView":11,
			"componentType":5123,
			"count":1296,
			"type":"SCALAR"
		},
		{
			"bufferView":12,
			"componentType":5126,
			"count":366,
			"max":[
				92.9646987915039,
				-23.12540054321289,
				-9.999990463256836
			],
			"min":[
				-615.791015625,
				-652.2449951171875,
				-17.3799991607666
			],
			"type":"VEC3"
		},
		{
			"bufferView":13,
			"componentType":5126,
			"count":366,
			"type":"VEC3"
		},
		{
			"bufferView":14,
			"componentType":5126,
			"count":366,
			"type":"VEC2"
		},
		{
			"bufferView":15,
			"componentType":5123,
			"count":564,
			"type":"SCALAR"
		}
	],
	"bufferViews":[
		{
			"buffer":0,
			"byteLength":54564,
			"byteOffset":0,
			"target":34962
		},
		{
			"buffer":0,
			"byteLength":54564,
			"byteOffset":54564,
			"target":34962
		},
		{
			"buffer":0,
			"byteLength":36376,
			"byteOffset":109128,
			"target":34962
		},
		{
			"buffer":0,
			"byteLength":18408,
			"byteOffset":145504,
			"target":34963
		},
		{
			"buffer":0,
			"byteLength":50112,
			"byteOffset":163912,
			"target":34962
		},
		{
			"buffer":0,
			"byteLength":50112,
			"byteOffset":214024,
			"target":34962
		},
		{
			"buffer":0,
			"byteLength":33408,
			"byteOffset":264136,
			"target":34962
		},
		{
			"buffer":0,
			"byteLength":17280,
			"byteOffset":297544,
			"target":34963
		},
		{
			"buffer":0,
			"byteLength":8112,
			"byteOffset":314824,
			"target":34962
		},
		{
			"buffer":0,
			"byteLength":8112,
			"byteOffset":322936,
			"target":34962
		},
		{
			"buffer":0,
			"byteLength":5408,
			"byteOffset":331048,
			"target":34962
		},
		{
			"buffer":0,
			"byteLength":2592,
			"byteOffset":336456,
			"target":34963
		},
		{
			"buffer":0,
			"byteLength":4392,
			"byteOffset":339048,
			"target":34962
		},
		{
			"buffer":0,
			"byteLength":4392,
			"byteOffset":343440,
			"target":34962
		},
		{
			"buffer":0,
			"byteLength":2928,
			"byteOffset":347832,
			"target":34962
		},
		{
			"buffer":0,
			"byteLength":1128,
			"byteOffset":350760,
			"target":34963
		}
	],
	"buffers":[
		{
			"byteLength":351888,
			"uri":"npisland.bin"
		}
	]
}
